<svg xmlns="http://www.w3.org/2000/svg" viewBox="0 0 407.453 407.453"><g fill="#010002"><path d="M255.099 116.515c4.487 0 8.129-3.633 8.129-8.129 0-4.495-3.642-8.129-8.129-8.129H143.486c-4.487 0-8.129 3.633-8.129 8.129 0 4.495 3.642 8.129 8.129 8.129h111.613z"/><path d="M367.062 100.258H311.69c-4.487 0-8.129 3.633-8.129 8.129 0 4.495 3.642 8.129 8.129 8.129h47.243v274.681H48.519V116.515h44.536c4.487 0 8.129-3.633 8.129-8.129 0-4.495-3.642-8.129-8.129-8.129H40.391c-4.487 0-8.129 3.633-8.129 8.129v290.938c0 4.495 3.642 8.129 8.129 8.129h326.671c4.487 0 8.129-3.633 8.129-8.129V108.386c0-4.495-3.634-8.128-8.129-8.128z"/><path d="M282.59 134.796c4.487 0 8.129-3.633 8.129-8.129V67.394C290.718 30.238 250.604 0 201.101 0c-49.308 0-89.414 30.238-89.414 67.394v59.274c0 4.495 3.642 8.129 8.129 8.129s8.129-3.633 8.129-8.129V67.394c0-28.198 32.823-51.137 73.36-51.137 40.334 0 73.157 22.939 73.157 51.137v59.274c-.001 4.495 3.633 8.128 8.128 8.128zM98.892 147.566c0 11.526 9.389 20.907 20.923 20.907 11.534 0 20.923-9.38 20.923-20.907 0-4.495-3.642-8.129-8.129-8.129s-8.129 3.633-8.129 8.129c0 2.561-2.089 4.65-4.666 4.65-2.569 0-4.666-2.089-4.666-4.65 0-4.495-3.642-8.129-8.129-8.129s-8.127 3.634-8.127 8.129zM282.59 168.473c11.534 0 20.923-9.38 20.923-20.907 0-4.495-3.642-8.129-8.129-8.129s-8.129 3.633-8.129 8.129c0 2.561-2.089 4.65-4.666 4.65-2.577 0-4.666-2.089-4.666-4.65 0-4.495-3.642-8.129-8.129-8.129s-8.129 3.633-8.129 8.129c.002 11.526 9.39 20.907 20.925 20.907z"/></g></svg>